<svg width="899" height="896" viewBox="0 0 899 896" fill="none" xmlns="http://www.w3.org/2000/svg">
<path d="M192 0L0 192V896H713L899 710V0H192Z" fill="url(#paint0_linear_32_39)"/>
<path fill-rule="evenodd" clip-rule="evenodd" d="M187 303H361.911L414.44 333.735V471.764L361.911 501.94L431.205 624.881H361.911L290.941 501.94H251.823V624.881H187V303ZM250.705 357.765H351.293V448.294H250.705V357.765Z" fill="white"/>
<path d="M739.94 410.559H680.838C679.153 400.867 676.045 392.281 671.515 384.801C666.985 377.216 661.349 370.79 654.606 365.522C647.864 360.254 640.173 356.304 631.534 353.67C623.001 350.931 613.783 349.561 603.88 349.561C586.286 349.561 570.695 353.986 557.104 362.836C543.514 371.58 532.874 384.432 525.183 401.394C517.493 418.25 513.647 438.846 513.647 463.182C513.647 487.939 517.493 508.799 525.183 525.76C532.979 542.616 543.62 555.363 557.104 564.002C570.695 572.536 586.234 576.802 603.722 576.802C613.414 576.802 622.474 575.538 630.902 573.01C639.436 570.376 647.074 566.531 653.816 561.474C660.664 556.417 666.405 550.201 671.041 542.827C675.782 535.452 679.047 527.024 680.838 517.543L739.94 517.859C737.728 533.24 732.934 547.673 725.56 561.158C718.29 574.643 708.756 586.547 696.957 596.871C685.158 607.09 671.357 615.097 655.554 620.891C639.752 626.58 622.211 629.425 602.932 629.425C574.487 629.425 549.098 622.84 526.763 609.672C504.429 596.503 486.836 577.487 473.983 552.624C461.13 527.762 454.704 497.947 454.704 463.182C454.704 428.311 461.183 398.497 474.141 373.739C487.099 348.877 504.745 329.861 527.08 316.692C549.414 303.523 574.698 296.939 602.932 296.939C620.947 296.939 637.697 299.467 653.184 304.524C668.67 309.581 682.471 317.008 694.587 326.806C706.702 336.498 716.658 348.403 724.453 362.52C732.355 376.531 737.517 392.544 739.94 410.559Z" fill="white"/>
<defs>
<linearGradient id="paint0_linear_32_39" x1="0" y1="448" x2="899" y2="448" gradientUnits="userSpaceOnUse">
<stop stop-color="#FF3CAC"/>
<stop offset="0.52" stop-color="#562B7C"/>
<stop offset="1" stop-color="#2B86C5"/>
</linearGradient>
</defs>
</svg>
