<svg width="899" height="896" viewBox="0 0 899 896" fill="none" xmlns="http://www.w3.org/2000/svg">
<path d="M192 0L0 192V896H713L899 710V0H192Z" fill="#4442AB"/>
<path fill-rule="evenodd" clip-rule="evenodd" d="M164 303H338.911L391.44 333.735V471.764L338.911 501.94L408.205 624.881H338.911L267.941 501.94H228.823V624.881H164V303ZM227.705 357.765H328.293V448.294H227.705V357.765Z" fill="white"/>
<path d="M338.911 303L339.164 302.568L339.047 302.5H338.911V303ZM164 303V302.5H163.5V303H164ZM391.44 333.735H391.94V333.448L391.693 333.304L391.44 333.735ZM391.44 471.764L391.689 472.198L391.94 472.053V471.764H391.44ZM338.911 501.94L338.662 501.507L338.232 501.754L338.475 502.186L338.911 501.94ZM408.205 624.881V625.381H409.061L408.64 624.636L408.205 624.881ZM338.911 624.881L338.478 625.131L338.622 625.381H338.911V624.881ZM267.941 501.94L268.374 501.69L268.229 501.44H267.941V501.94ZM228.823 501.94V501.44H228.323V501.94H228.823ZM228.823 624.881V625.381H229.323V624.881H228.823ZM164 624.881H163.5V625.381H164V624.881ZM328.293 357.765H328.793V357.265H328.293V357.765ZM227.705 357.765V357.265H227.205V357.765H227.705ZM328.293 448.294V448.794H328.793V448.294H328.293ZM227.705 448.294H227.205V448.794H227.705V448.294ZM338.911 302.5H164V303.5H338.911V302.5ZM391.693 333.304L339.164 302.568L338.659 303.432L391.188 334.167L391.693 333.304ZM391.94 471.764V333.735H390.94V471.764H391.94ZM339.16 502.374L391.689 472.198L391.191 471.33L338.662 501.507L339.16 502.374ZM408.64 624.636L339.347 501.695L338.475 502.186L407.769 625.127L408.64 624.636ZM338.911 625.381H408.205V624.381H338.911V625.381ZM267.508 502.19L338.478 625.131L339.344 624.631L268.374 501.69L267.508 502.19ZM228.823 502.44H267.941V501.44H228.823V502.44ZM229.323 624.881V501.94H228.323V624.881H229.323ZM164 625.381H228.823V624.381H164V625.381ZM163.5 303V624.881H164.5V303H163.5ZM328.293 357.265H227.705V358.265H328.293V357.265ZM328.793 448.294V357.765H327.793V448.294H328.793ZM227.705 448.794H328.293V447.794H227.705V448.794ZM227.205 357.765V448.294H228.205V357.765H227.205Z" fill="white"/>
<path d="M471 625H532.691V380.787L673.309 625H735V303H672.267V544.048L532.691 303H471V625Z" fill="#D9D9D9" stroke="white"/>
</svg>

