<svg width="899" height="896" viewBox="0 0 899 896" fill="none" xmlns="http://www.w3.org/2000/svg">
<path d="M192 0L0 192V896H713L899 710V0H192Z" fill="#E41E37"/>
<path fill-rule="evenodd" clip-rule="evenodd" d="M160 303H334.911L387.44 333.735V471.764L334.911 501.94L404.205 624.881H334.911L263.941 501.94H224.823V624.881H160V303ZM223.705 357.765H324.293V448.294H223.705V357.765Z" fill="white"/>
<path d="M334.911 303L335.164 302.568L335.047 302.5H334.911V303ZM160 303V302.5H159.5V303H160ZM387.44 333.735H387.94V333.448L387.693 333.304L387.44 333.735ZM387.44 471.764L387.689 472.198L387.94 472.053V471.764H387.44ZM334.911 501.94L334.662 501.507L334.232 501.754L334.475 502.186L334.911 501.94ZM404.205 624.881V625.381H405.061L404.64 624.636L404.205 624.881ZM334.911 624.881L334.478 625.131L334.622 625.381H334.911V624.881ZM263.941 501.94L264.374 501.69L264.229 501.44H263.941V501.94ZM224.823 501.94V501.44H224.323V501.94H224.823ZM224.823 624.881V625.381H225.323V624.881H224.823ZM160 624.881H159.5V625.381H160V624.881ZM324.293 357.765H324.793V357.265H324.293V357.765ZM223.705 357.765V357.265H223.205V357.765H223.705ZM324.293 448.294V448.794H324.793V448.294H324.293ZM223.705 448.294H223.205V448.794H223.705V448.294ZM334.911 302.5H160V303.5H334.911V302.5ZM387.693 333.304L335.164 302.568L334.659 303.432L387.188 334.167L387.693 333.304ZM387.94 471.764V333.735H386.94V471.764H387.94ZM335.16 502.374L387.689 472.198L387.191 471.33L334.662 501.507L335.16 502.374ZM404.64 624.636L335.347 501.695L334.475 502.186L403.769 625.127L404.64 624.636ZM334.911 625.381H404.205V624.381H334.911V625.381ZM263.508 502.19L334.478 625.131L335.344 624.631L264.374 501.69L263.508 502.19ZM224.823 502.44H263.941V501.44H224.823V502.44ZM225.323 624.881V501.94H224.323V624.881H225.323ZM160 625.381H224.823V624.381H160V625.381ZM159.5 303V624.881H160.5V303H159.5ZM324.293 357.265H223.705V358.265H324.293V357.265ZM324.793 448.294V357.765H323.793V448.294H324.793ZM223.705 448.794H324.293V447.794H223.705V448.794ZM223.205 357.765V448.294H224.205V357.765H223.205Z" fill="white"/>
<path fill-rule="evenodd" clip-rule="evenodd" d="M467 303H641.911L694.44 333.735V471.764L641.911 501.94L711.205 624.881H641.911L570.941 501.94H531.823V624.881H467V303ZM530.705 357.765H631.293V448.294H530.705V357.765Z" fill="white"/>
<path d="M641.911 303L642.164 302.568L642.047 302.5H641.911V303ZM467 303V302.5H466.5V303H467ZM694.44 333.735H694.94V333.448L694.693 333.304L694.44 333.735ZM694.44 471.764L694.689 472.198L694.94 472.053V471.764H694.44ZM641.911 501.94L641.662 501.507L641.232 501.754L641.475 502.186L641.911 501.94ZM711.205 624.881V625.381H712.061L711.64 624.636L711.205 624.881ZM641.911 624.881L641.478 625.131L641.622 625.381H641.911V624.881ZM570.941 501.94L571.374 501.69L571.229 501.44H570.941V501.94ZM531.823 501.94V501.44H531.323V501.94H531.823ZM531.823 624.881V625.381H532.323V624.881H531.823ZM467 624.881H466.5V625.381H467V624.881ZM631.293 357.765H631.793V357.265H631.293V357.765ZM530.705 357.765V357.265H530.205V357.765H530.705ZM631.293 448.294V448.794H631.793V448.294H631.293ZM530.705 448.294H530.205V448.794H530.705V448.294ZM641.911 302.5H467V303.5H641.911V302.5ZM694.693 333.304L642.164 302.568L641.659 303.432L694.188 334.167L694.693 333.304ZM694.94 471.764V333.735H693.94V471.764H694.94ZM642.16 502.374L694.689 472.198L694.191 471.33L641.662 501.507L642.16 502.374ZM711.64 624.636L642.347 501.695L641.475 502.186L710.769 625.127L711.64 624.636ZM641.911 625.381H711.205V624.381H641.911V625.381ZM570.508 502.19L641.478 625.131L642.344 624.631L571.374 501.69L570.508 502.19ZM531.823 502.44H570.941V501.44H531.823V502.44ZM532.323 624.881V501.94H531.323V624.881H532.323ZM467 625.381H531.823V624.381H467V625.381ZM466.5 303V624.881H467.5V303H466.5ZM631.293 357.265H530.705V358.265H631.293V357.265ZM631.793 448.294V357.765H630.793V448.294H631.793ZM530.705 448.794H631.293V447.794H530.705V448.794ZM530.205 357.765V448.294H531.205V357.765H530.205Z" fill="white"/>
</svg>

